<svg width="162" height="24" viewBox="0 0 162 24" fill="none" xmlns="http://www.w3.org/2000/svg">
<path d="M4.88849 4.78201V8.90268C4.88849 8.95387 4.89702 8.99652 4.91409 9.03065C4.94821 9.04771 4.98234 9.06478 5.01646 9.08184H5.24681C5.60513 9.08184 6.04876 8.79177 6.57771 8.21164C7.94273 6.74424 9.44426 5.03796 11.0823 3.0928C11.3553 2.7686 11.4918 2.51266 11.4918 2.32497C11.4918 2.15434 11.3041 2.0349 10.9287 1.96665C10.5533 1.8984 10.2377 1.86428 9.98174 1.86428C9.91348 1.86428 9.87083 1.77043 9.85376 1.58274C9.8367 1.37799 9.84523 1.21589 9.87936 1.09645C11.7733 1.19883 12.8056 1.25001 12.9763 1.25001C13.3004 1.25001 13.6161 1.24148 13.9232 1.22442C14.2474 1.20736 14.5887 1.19029 14.947 1.17323C15.3224 1.13911 15.6295 1.11351 15.8684 1.09645C15.9025 1.1647 15.9111 1.30973 15.894 1.53155C15.894 1.75337 15.8684 1.86428 15.8172 1.86428C14.6228 2.00078 13.7611 2.3591 13.2322 2.93923L8.47168 8.3652C8.28399 8.58702 8.30105 8.8259 8.52287 9.08184L14.5119 16.197C14.819 16.5724 15.2285 16.8454 15.7404 17.016C16.2694 17.1867 16.6533 17.272 16.8922 17.272C16.9775 17.272 17.0201 17.4341 17.0201 17.7583C17.0201 17.8948 16.9945 18.0142 16.9434 18.1166C14.8958 18.0142 13.727 17.963 13.437 17.963C12.8909 17.963 12.234 17.9886 11.4662 18.0398C10.7154 18.0739 10.1865 18.0995 9.87936 18.1166C9.81111 18.0483 9.77698 17.8948 9.77698 17.6559C9.77698 17.4 9.81111 17.272 9.87936 17.272C10.067 17.272 10.3059 17.2123 10.596 17.0928C10.8861 16.9734 11.0311 16.8454 11.0311 16.7089C11.0311 16.6236 10.7922 16.2653 10.3145 15.634C9.8367 15.0026 9.17978 14.2007 8.34371 13.2281C7.50763 12.2385 6.68008 11.3171 5.86107 10.4639C5.79282 10.3957 5.60513 10.3615 5.298 10.3615C5.02499 10.3615 4.88849 10.4639 4.88849 10.6687V14.4566C4.88849 15.3609 4.96527 16.1117 5.11884 16.7089C5.15296 16.8283 5.38331 16.9563 5.80988 17.0928C6.25351 17.2123 6.55211 17.272 6.70568 17.272C6.77393 17.272 6.80806 17.4341 6.80806 17.7583C6.80806 17.8948 6.79099 18.0142 6.75687 18.1166C4.70933 18.0142 3.62584 17.963 3.5064 17.963C3.16515 17.963 2.80683 17.9716 2.43145 17.9886C2.05607 18.0057 1.63803 18.0227 1.17733 18.0398C0.7337 18.0739 0.375381 18.0995 0.102377 18.1166C0.0341256 18.0483 0 17.9289 0 17.7583C0 17.4341 0.0341256 17.272 0.102377 17.272C0.30713 17.272 0.622792 17.2123 1.04936 17.0928C1.49299 16.9734 1.74041 16.8454 1.79159 16.7089C1.9281 16.18 1.99635 15.4633 1.99635 14.559V4.67964C1.99635 3.65587 1.9281 2.93923 1.79159 2.52972C1.72334 2.39322 1.48446 2.26525 1.07496 2.14581C0.665449 2.00931 0.358319 1.94106 0.153565 1.94106C0.085314 1.94106 0.0511884 1.81309 0.0511884 1.55715C0.0511884 1.28414 0.0682512 1.13058 0.102377 1.09645C0.187691 1.09645 0.656918 1.12204 1.51006 1.17323C2.38026 1.22442 3.04571 1.25001 3.5064 1.25001C3.64291 1.25001 4.73493 1.19883 6.78246 1.09645C6.83365 1.25001 6.85924 1.38652 6.85924 1.50596C6.85924 1.79602 6.82512 1.94106 6.75687 1.94106C6.6033 1.94106 6.29617 2.00931 5.83548 2.14581C5.37478 2.28231 5.12737 2.41028 5.09324 2.52972C4.95674 3.05867 4.88849 3.80943 4.88849 4.78201Z" fill="#C95003"/>
<path d="M19.3502 3.70706C19.0431 3.38286 18.8895 3.00748 18.8895 2.58091C18.8895 2.13728 19.0431 1.7619 19.3502 1.45477C19.6574 1.14764 20.0327 0.994073 20.4764 0.994073C20.92 0.994073 21.2954 1.14764 21.6025 1.45477C21.9097 1.7619 22.0632 2.13728 22.0632 2.58091C22.0632 3.00748 21.9097 3.38286 21.6025 3.70706C21.2954 4.01419 20.92 4.16775 20.4764 4.16775C20.0327 4.16775 19.6574 4.01419 19.3502 3.70706ZM22.012 14.4054C22.012 15.4463 22.0803 16.2141 22.2168 16.7089C22.2509 16.8283 22.4813 16.9563 22.9078 17.0928C23.3344 17.2123 23.6245 17.272 23.778 17.272C23.8463 17.272 23.8804 17.4 23.8804 17.6559C23.8975 17.8948 23.8889 18.0569 23.8548 18.1422C23.7354 18.1251 23.2747 18.091 22.4727 18.0398C21.6878 17.9886 21.1077 17.963 20.7323 17.963C20.3057 17.963 19.7 17.9886 18.9151 18.0398C18.1473 18.091 17.7037 18.1251 17.5842 18.1422C17.516 18.0739 17.4819 17.9118 17.4819 17.6559C17.4819 17.4 17.516 17.272 17.5842 17.272C17.7719 17.272 18.0791 17.2123 18.5056 17.0928C18.9322 16.9563 19.1625 16.8283 19.1967 16.7089C19.3161 16.197 19.3758 15.5742 19.3758 14.8405V10.6687C19.3758 9.86673 19.2393 9.32072 18.9663 9.03065C18.8128 8.86002 18.6165 8.73205 18.3777 8.64674C18.1388 8.56142 17.934 8.51023 17.7634 8.49317C17.5928 8.47611 17.5075 8.45051 17.5075 8.41639C17.5075 7.92157 17.5586 7.66563 17.661 7.64856C18.1388 7.61444 18.8298 7.51206 19.7341 7.34143C20.6385 7.17081 21.3125 7.01724 21.7561 6.88074C21.7732 6.88074 21.8073 6.87221 21.8585 6.85514C21.9267 6.83808 21.9608 6.82955 21.9608 6.82955C22.0462 6.82955 22.1144 6.88927 22.1656 7.00871C22.2168 7.12815 22.2338 7.22199 22.2168 7.29025C22.0803 8.38226 22.012 9.11596 22.012 9.49135V14.4054Z" fill="#C95003"/>
<path d="M32.4555 6.72717C33.1039 6.72717 33.6584 6.8978 34.1191 7.23906C34.5798 7.56325 34.9211 7.98982 35.1429 8.51877C35.6377 8.00688 36.2605 7.58031 37.0113 7.23906C37.762 6.8978 38.564 6.72717 39.4171 6.72717C40.0314 6.72717 40.5518 6.86368 40.9784 7.13668C41.422 7.40968 41.7632 7.7936 42.0021 8.28842C42.2581 8.76618 42.4372 9.29512 42.5396 9.87526C42.659 10.4383 42.7188 11.0526 42.7188 11.718V14.4054C42.7188 15.4463 42.7785 16.2141 42.8979 16.7089C42.932 16.8283 43.1624 16.9563 43.589 17.0928C44.0155 17.2123 44.3056 17.272 44.4592 17.272C44.5104 17.272 44.5359 17.4 44.5359 17.6559C44.553 17.8948 44.5445 18.0569 44.5104 18.1422C44.3909 18.1251 43.9387 18.091 43.1539 18.0398C42.386 17.9886 41.8059 17.963 41.4135 17.963C41.0039 17.963 40.4153 17.9886 39.6475 18.0398C38.8967 18.091 38.4445 18.1251 38.291 18.1422C38.2398 18.0739 38.2142 17.9118 38.2142 17.6559C38.2142 17.4 38.2398 17.272 38.291 17.272C38.4957 17.272 38.8028 17.2123 39.2124 17.0928C39.6219 16.9563 39.8437 16.8283 39.8778 16.7089C39.9972 16.197 40.057 15.5998 40.057 14.9173V12.3067C40.057 9.8326 39.2635 8.59555 37.6767 8.59555C37.1136 8.59555 36.6444 8.73205 36.269 9.00506C35.8936 9.27806 35.6718 9.54253 35.6036 9.79848C35.6036 9.84966 35.595 9.91792 35.578 10.0032C35.578 10.0885 35.5865 10.1568 35.6036 10.208C35.6548 10.5834 35.6804 11.1123 35.6804 11.7948V14.5078C35.6804 15.4804 35.7401 16.2141 35.8595 16.7089C35.8936 16.8283 36.124 16.9563 36.5506 17.0928C36.9771 17.2123 37.2672 17.272 37.4208 17.272C37.472 17.272 37.4975 17.4 37.4975 17.6559C37.5146 17.8948 37.5061 18.0569 37.472 18.1422C37.3525 18.1251 36.9003 18.091 36.1155 18.0398C35.3476 17.9886 34.7675 17.963 34.375 17.963C33.9655 17.963 33.3769 17.9886 32.6091 18.0398C31.8583 18.091 31.4061 18.1251 31.2526 18.1422C31.2014 18.0739 31.1758 17.9118 31.1758 17.6559C31.1758 17.4 31.2014 17.272 31.2526 17.272C31.4573 17.272 31.7644 17.2123 32.174 17.0928C32.5835 16.9563 32.8053 16.8283 32.8394 16.7089C32.9588 16.197 33.0186 15.5742 33.0186 14.8405V12.3835C33.0186 11.0526 32.8223 10.0885 32.4299 9.49135C32.0374 8.89415 31.4573 8.59555 30.6895 8.59555C30.1776 8.59555 29.7084 8.74058 29.2818 9.03065C28.8552 9.32072 28.642 9.64491 28.642 10.0032V14.4054C28.642 15.4463 28.7102 16.2141 28.8467 16.7089C28.8808 16.8283 29.1026 16.9563 29.5122 17.0928C29.9217 17.2123 30.2032 17.272 30.3568 17.272C30.425 17.272 30.4591 17.4 30.4591 17.6559C30.4762 17.8948 30.4677 18.0569 30.4335 18.1422C30.297 18.1251 29.8449 18.091 29.0771 18.0398C28.3263 17.9886 27.7547 17.963 27.3622 17.963C26.9357 17.963 26.3385 17.9886 25.5706 18.0398C24.8028 18.091 24.3507 18.1251 24.2142 18.1422C24.1459 18.0739 24.1118 17.9118 24.1118 17.6559C24.1118 17.4 24.1459 17.272 24.2142 17.272C24.4018 17.272 24.709 17.2123 25.1355 17.0928C25.5621 16.9563 25.7925 16.8283 25.8266 16.7089C25.946 16.197 26.0057 15.5742 26.0057 14.8405V10.6687C26.0057 9.86673 25.8692 9.32072 25.5962 9.03065C25.4597 8.86002 25.2635 8.73205 25.0076 8.64674C24.7687 8.56142 24.5639 8.51023 24.3933 8.49317C24.2227 8.47611 24.1374 8.45051 24.1374 8.41639C24.1374 7.92157 24.1886 7.66563 24.2909 7.64856C25.0758 7.58031 26.4409 7.32437 28.386 6.88074C28.4031 6.86368 28.4287 6.85514 28.4628 6.85514C28.4969 6.83808 28.5225 6.82955 28.5396 6.82955C28.5737 6.82955 28.5908 6.82955 28.5908 6.82955C28.6761 6.82955 28.7443 6.88927 28.7955 7.00871C28.8467 7.12815 28.8638 7.22199 28.8467 7.29025C28.7785 7.768 28.7443 8.07513 28.7443 8.21164C28.7443 8.27989 28.7614 8.32254 28.7955 8.33961C28.8126 8.33961 28.8552 8.31401 28.9235 8.26282C29.333 7.85332 29.8534 7.495 30.4847 7.18787C31.1331 6.88074 31.79 6.72717 32.4555 6.72717Z" fill="#C95003"/>
<path d="M50.0909 7.9301C49.289 7.9301 48.6662 8.32254 48.2225 9.10743C47.7789 9.87526 47.5571 10.7966 47.5571 11.8716C47.5571 13.2537 47.8301 14.4566 48.3761 15.4804C48.9392 16.5042 49.7155 17.016 50.7052 17.016C51.5071 17.016 52.1299 16.6236 52.5735 15.8387C53.0342 15.0538 53.2646 14.1324 53.2646 13.0745C53.2646 12.1873 53.1537 11.3683 52.9319 10.6175C52.71 9.84966 52.3517 9.20981 51.8569 8.69793C51.3621 8.18604 50.7734 7.9301 50.0909 7.9301ZM50.4236 6.72717C52.0275 6.72717 53.3926 7.29025 54.5187 8.41639C55.6619 9.52547 56.2335 10.8734 56.2335 12.4603C56.2335 14.0471 55.6704 15.4036 54.5443 16.5297C53.4352 17.6559 52.0702 18.219 50.4492 18.219C48.8283 18.219 47.4547 17.6559 46.3286 16.5297C45.2024 15.4036 44.6393 14.0471 44.6393 12.4603C44.6393 10.8564 45.1939 9.49988 46.303 8.39079C47.4291 7.28171 48.8027 6.72717 50.4236 6.72717Z" fill="#C95003"/>
<path d="M59.3058 6.98311C59.6812 6.98311 60.2187 6.95752 60.9183 6.90633C61.6178 6.85514 62.0529 6.82955 62.2236 6.82955C62.2577 6.94899 62.2748 7.10255 62.2748 7.29025C62.2748 7.52912 62.2406 7.64856 62.1724 7.64856C62.0018 7.64856 61.7288 7.71681 61.3534 7.85332C60.9951 7.97276 60.8074 8.10926 60.7903 8.26282V8.41639C60.8244 8.68939 61.6178 10.6346 63.1706 14.2519C63.3071 13.9447 63.6398 13.1087 64.1687 11.7436C64.6977 10.3615 65.0048 9.56813 65.0901 9.36337C65.1925 9.07331 65.2437 8.80883 65.2437 8.56995C65.2437 8.34814 65.1072 8.14338 64.8342 7.95569C64.5612 7.75094 64.1517 7.64856 63.6057 7.64856C63.5374 7.64856 63.5033 7.52059 63.5033 7.26465C63.5033 7.04283 63.5374 6.8978 63.6057 6.82955C63.8104 6.82955 64.2285 6.85514 64.8598 6.90633C65.4911 6.95752 66.0115 6.98311 66.421 6.98311C66.7793 6.98311 67.2144 6.95752 67.7263 6.90633C68.2553 6.85514 68.6392 6.82955 68.8781 6.82955C68.9463 6.93193 68.9804 7.06843 68.9804 7.23906C68.9804 7.51206 68.9463 7.64856 68.8781 7.64856C68.6392 7.64856 68.2894 7.73388 67.8287 7.90451C67.3851 8.07513 67.095 8.33108 66.9585 8.67233L62.2748 19.985C61.2169 22.4761 59.9457 23.7217 58.4612 23.7217C58.0176 23.7217 57.6763 23.6023 57.4375 23.3634C57.1986 23.1245 57.0791 22.8515 57.0791 22.5444C57.0791 22.1008 57.2412 21.768 57.5654 21.5462C59.34 21.5462 60.5088 20.8466 61.0718 19.4475C61.4813 18.4237 61.7117 17.8436 61.7629 17.7071L58.0261 9.00506C57.8896 8.69793 57.7873 8.5017 57.719 8.41639C57.5484 8.16045 57.2924 7.97276 56.9512 7.85332C56.627 7.71681 56.354 7.64856 56.1322 7.64856C56.0639 7.64856 56.0298 7.52912 56.0298 7.29025C56.0298 7.01724 56.0554 6.86368 56.1066 6.82955C56.2089 6.82955 56.6611 6.85514 57.4631 6.90633C58.2821 6.95752 58.8963 6.98311 59.3058 6.98311Z" fill="#C95003"/>
<path d="M74.3818 7.9301C73.5799 7.9301 72.9571 8.32254 72.5135 9.10743C72.0698 9.87526 71.848 10.7966 71.848 11.8716C71.848 13.2537 72.121 14.4566 72.667 15.4804C73.2301 16.5042 74.0065 17.016 74.9961 17.016C75.7981 17.016 76.4208 16.6236 76.8645 15.8387C77.3252 15.0538 77.5555 14.1324 77.5555 13.0745C77.5555 12.1873 77.4446 11.3683 77.2228 10.6175C77.001 9.84966 76.6427 9.20981 76.1478 8.69793C75.653 8.18604 75.0644 7.9301 74.3818 7.9301ZM74.7146 6.72717C76.3185 6.72717 77.6835 7.29025 78.8096 8.41639C79.9529 9.52547 80.5245 10.8734 80.5245 12.4603C80.5245 14.0471 79.9614 15.4036 78.8352 16.5297C77.7262 17.6559 76.3611 18.219 74.7402 18.219C73.1192 18.219 71.7456 17.6559 70.6195 16.5297C69.4934 15.4036 68.9303 14.0471 68.9303 12.4603C68.9303 10.8564 69.4848 9.49988 70.5939 8.39079C71.72 7.28171 73.0936 6.72717 74.7146 6.72717Z" fill="#C95003"/>
<path d="M87.1298 4.67964C87.1298 3.65587 87.0616 2.93923 86.925 2.52972C86.8568 2.39322 86.6179 2.26525 86.2084 2.14581C85.7989 2.00931 85.4918 1.94106 85.287 1.94106C85.2188 1.94106 85.1846 1.81309 85.1846 1.55715C85.1846 1.28414 85.2017 1.13058 85.2358 1.09645C85.3211 1.09645 85.7904 1.12204 86.6435 1.17323C87.5137 1.22442 88.1792 1.25001 88.6399 1.25001C88.7764 1.25001 89.8684 1.19883 91.9159 1.09645C91.9671 1.25001 91.9927 1.38652 91.9927 1.50596C91.9927 1.79602 91.9586 1.94106 91.8903 1.94106C91.7368 1.94106 91.4296 2.00931 90.9689 2.14581C90.5082 2.28231 90.2608 2.41028 90.2267 2.52972C90.0902 3.05867 90.0219 3.80943 90.0219 4.78201V14.4054C90.0219 15.3439 90.0987 16.1117 90.2523 16.7089C90.2864 16.8283 90.5168 16.9563 90.9433 17.0928C91.387 17.2123 91.6856 17.272 91.8391 17.272C91.9074 17.272 91.9415 17.4341 91.9415 17.7583C91.9415 17.8948 91.9244 18.0142 91.8903 18.1166C89.8428 18.0142 88.7593 17.963 88.6399 17.963C88.2986 17.963 87.9403 17.9716 87.5649 17.9886C87.1895 18.0057 86.7715 18.0227 86.3108 18.0398C85.8672 18.0739 85.5088 18.0995 85.2358 18.1166C85.1676 18.0483 85.1335 17.9289 85.1335 17.7583C85.1335 17.4341 85.1676 17.272 85.2358 17.272C85.4406 17.272 85.7562 17.2123 86.1828 17.0928C86.6264 16.9734 86.8739 16.8454 86.925 16.7089C87.0616 16.18 87.1298 15.4633 87.1298 14.559V4.67964Z" fill="#C95003"/>
<path d="M100.747 6.72717C102.948 6.72717 104.049 8.47611 104.049 11.974V14.4054C104.049 15.4463 104.108 16.2141 104.228 16.7089C104.262 16.8283 104.492 16.9563 104.919 17.0928C105.362 17.2123 105.661 17.272 105.815 17.272C105.866 17.272 105.891 17.4 105.891 17.6559C105.908 17.8948 105.9 18.0569 105.866 18.1422C105.763 18.1251 105.311 18.091 104.509 18.0398C103.724 17.9886 103.136 17.963 102.743 17.963C102.334 17.963 101.762 17.9886 101.028 18.0398C100.312 18.091 99.8767 18.1251 99.7232 18.1422C99.6549 18.0739 99.6208 17.9118 99.6208 17.6559C99.6208 17.4 99.6549 17.272 99.7232 17.272C99.9109 17.272 100.192 17.2123 100.568 17.0928C100.96 16.9563 101.174 16.8283 101.208 16.7089C101.344 16.197 101.412 15.5742 101.412 14.8405V12.4091C101.412 10.9929 101.216 10.0032 100.824 9.44016C100.448 8.87708 99.8426 8.59555 99.0065 8.59555C98.4605 8.59555 97.9828 8.74911 97.5733 9.05624C97.1637 9.34631 96.959 9.66197 96.959 10.0032V14.4054C96.959 15.4463 97.0187 16.2141 97.1382 16.7089C97.1723 16.8283 97.3941 16.9563 97.8036 17.0928C98.2302 17.2123 98.5117 17.272 98.6482 17.272C98.7165 17.272 98.7506 17.4 98.7506 17.6559C98.7677 17.8948 98.7591 18.0569 98.725 18.1422C98.5885 18.1251 98.1363 18.091 97.3685 18.0398C96.6177 17.9886 96.0461 17.963 95.6537 17.963C95.2442 17.963 94.647 17.9886 93.8621 18.0398C93.0943 18.091 92.6421 18.1251 92.5056 18.1422C92.4374 18.0739 92.4032 17.9118 92.4032 17.6559C92.4032 17.4 92.4374 17.272 92.5056 17.272C92.7104 17.272 93.0175 17.2123 93.427 17.0928C93.8536 16.9563 94.0839 16.8283 94.118 16.7089C94.2375 16.197 94.2972 15.5742 94.2972 14.8405V10.6687C94.2972 9.86673 94.1607 9.32072 93.8877 9.03065C93.7512 8.86002 93.555 8.73205 93.299 8.64674C93.0602 8.56142 92.8554 8.51023 92.6848 8.49317C92.5312 8.47611 92.4544 8.45051 92.4544 8.41639C92.4544 7.92157 92.4971 7.66563 92.5824 7.64856C93.3673 7.58031 94.7408 7.32437 96.7031 6.88074C96.7201 6.86368 96.7372 6.85514 96.7542 6.85514C96.7884 6.83808 96.814 6.82955 96.831 6.82955C96.8652 6.82955 96.8907 6.82955 96.9078 6.82955C96.9761 6.82955 97.0358 6.88927 97.087 7.00871C97.1382 7.12815 97.1637 7.22199 97.1637 7.29025C97.0955 7.768 97.0614 8.07513 97.0614 8.21164C97.0614 8.27989 97.0699 8.32254 97.087 8.33961C97.104 8.33961 97.1467 8.31401 97.2149 8.26282C97.6244 7.85332 98.1449 7.495 98.7762 7.18787C99.4246 6.88074 100.081 6.72717 100.747 6.72717Z" fill="#C95003"/>
<path d="M110.448 6.70158C111.404 6.70158 112.393 6.84661 113.417 7.13668C113.588 7.90451 113.682 8.86002 113.699 10.0032C113.699 10.1397 113.588 10.208 113.366 10.208C112.991 10.208 112.786 10.1397 112.752 10.0032C112.632 9.40603 112.376 8.90268 111.984 8.49317C111.608 8.0666 111.097 7.85332 110.448 7.85332C109.953 7.85332 109.561 7.96423 109.271 8.18604C108.998 8.40786 108.861 8.72352 108.861 9.13303C108.861 9.37191 108.904 9.59372 108.989 9.79848C109.092 9.98617 109.245 10.1653 109.45 10.336C109.672 10.5066 109.86 10.6431 110.013 10.7455C110.184 10.8478 110.431 10.9843 110.755 11.155C110.875 11.2232 110.96 11.2659 111.011 11.2829C111.045 11.3 111.173 11.3683 111.395 11.4877C111.617 11.6071 111.753 11.6839 111.805 11.718C111.873 11.7522 112.009 11.8375 112.214 11.974C112.436 12.0934 112.59 12.1873 112.675 12.2555C112.76 12.3238 112.888 12.4261 113.059 12.5626C113.246 12.6992 113.374 12.8186 113.443 12.921C113.528 13.0233 113.63 13.1598 113.75 13.3305C113.886 13.484 113.98 13.6376 114.031 13.7912C114.083 13.9277 114.125 14.0898 114.159 14.2775C114.211 14.4481 114.236 14.6272 114.236 14.8149C114.236 15.8899 113.818 16.743 112.982 17.3744C112.163 17.9886 111.165 18.2957 109.987 18.2957C108.93 18.2957 107.829 18.0569 106.686 17.5791C106.601 17.289 106.515 16.8198 106.43 16.1714C106.345 15.506 106.302 15.0112 106.302 14.687C106.404 14.6017 106.524 14.559 106.66 14.559C107.053 14.559 107.257 14.6272 107.274 14.7638C107.411 15.4804 107.744 16.0605 108.273 16.5042C108.819 16.9307 109.407 17.144 110.039 17.144C110.516 17.144 110.909 17.0246 111.216 16.7857C111.523 16.5468 111.677 16.197 111.677 15.7363C111.677 15.5657 111.651 15.4121 111.6 15.2756C111.566 15.1221 111.489 14.977 111.37 14.8405C111.25 14.687 111.148 14.5675 111.062 14.4822C110.994 14.3798 110.841 14.2604 110.602 14.1239C110.38 13.9874 110.209 13.8935 110.09 13.8424C109.987 13.7741 109.774 13.6632 109.45 13.5096C109.143 13.339 108.93 13.2196 108.81 13.1513C108.025 12.7418 107.42 12.2896 106.993 11.7948C106.566 11.2829 106.353 10.6687 106.353 9.95204C106.353 8.91121 106.763 8.10926 107.582 7.54619C108.401 6.98311 109.356 6.70158 110.448 6.70158Z" fill="#C95003"/>
<path d="M116.489 3.70706C116.182 3.38286 116.029 3.00748 116.029 2.58091C116.029 2.13728 116.182 1.7619 116.489 1.45477C116.797 1.14764 117.172 0.994073 117.616 0.994073C118.059 0.994073 118.435 1.14764 118.742 1.45477C119.049 1.7619 119.202 2.13728 119.202 2.58091C119.202 3.00748 119.049 3.38286 118.742 3.70706C118.435 4.01419 118.059 4.16775 117.616 4.16775C117.172 4.16775 116.797 4.01419 116.489 3.70706ZM119.151 14.4054C119.151 15.4463 119.219 16.2141 119.356 16.7089C119.39 16.8283 119.62 16.9563 120.047 17.0928C120.474 17.2123 120.764 17.272 120.917 17.272C120.985 17.272 121.02 17.4 121.02 17.6559C121.037 17.8948 121.028 18.0569 120.994 18.1422C120.875 18.1251 120.414 18.091 119.612 18.0398C118.827 17.9886 118.247 17.963 117.872 17.963C117.445 17.963 116.839 17.9886 116.054 18.0398C115.286 18.091 114.843 18.1251 114.723 18.1422C114.655 18.0739 114.621 17.9118 114.621 17.6559C114.621 17.4 114.655 17.272 114.723 17.272C114.911 17.272 115.218 17.2123 115.645 17.0928C116.071 16.9563 116.302 16.8283 116.336 16.7089C116.455 16.197 116.515 15.5742 116.515 14.8405V10.6687C116.515 9.86673 116.379 9.32072 116.106 9.03065C115.952 8.86002 115.756 8.73205 115.517 8.64674C115.278 8.56142 115.073 8.51023 114.903 8.49317C114.732 8.47611 114.647 8.45051 114.647 8.41639C114.647 7.92157 114.698 7.66563 114.8 7.64856C115.278 7.61444 115.969 7.51206 116.873 7.34143C117.778 7.17081 118.452 7.01724 118.895 6.88074C118.912 6.88074 118.946 6.87221 118.998 6.85514C119.066 6.83808 119.1 6.82955 119.1 6.82955C119.185 6.82955 119.254 6.88927 119.305 7.00871C119.356 7.12815 119.373 7.22199 119.356 7.29025C119.219 8.38226 119.151 9.11596 119.151 9.49135V14.4054Z" fill="#C95003"/>
<path d="M129.646 20.1641C129.646 19.5669 129.211 19.166 128.341 18.9612C127.487 18.7735 126.336 18.6797 124.885 18.6797C124.851 18.6797 124.809 18.6882 124.757 18.7053C124.723 18.7223 124.681 18.7479 124.629 18.782C124.408 18.8674 124.237 18.9356 124.118 18.9868C123.998 19.055 123.862 19.1489 123.708 19.2683C123.554 19.4048 123.435 19.5584 123.35 19.729C123.281 19.8997 123.247 20.1044 123.247 20.3433C123.247 20.9575 123.572 21.4694 124.22 21.8789C124.868 22.2884 125.593 22.4932 126.395 22.4932C127.351 22.4932 128.127 22.2714 128.724 21.8277C129.339 21.3841 129.646 20.8296 129.646 20.1641ZM124.169 10.4895C124.169 11.3256 124.339 12.0337 124.681 12.6138C125.022 13.1769 125.5 13.4584 126.114 13.4584C126.745 13.4584 127.206 13.2196 127.496 12.7418C127.803 12.247 127.957 11.6413 127.957 10.9246C127.957 10.0203 127.786 9.28659 127.445 8.72352C127.104 8.16045 126.609 7.87891 125.96 7.87891C125.346 7.87891 124.894 8.14338 124.604 8.67233C124.314 9.20128 124.169 9.80701 124.169 10.4895ZM126.114 6.77836C126.728 6.77836 127.436 6.88927 128.238 7.11109C129.04 7.3329 129.723 7.44381 130.286 7.44381H131.745C131.779 7.44381 131.838 7.55472 131.924 7.77653C132.009 7.99835 132.052 8.16898 132.052 8.28842C132.052 8.5273 132.001 8.64674 131.898 8.64674H130.235C130.166 8.64674 130.132 8.67233 130.132 8.72352C130.132 8.74058 130.209 8.9624 130.363 9.38897C130.516 9.81554 130.593 10.225 130.593 10.6175C130.593 11.6242 130.166 12.5371 129.313 13.3561C128.477 14.158 127.428 14.559 126.165 14.559C125.551 14.559 125.022 14.5249 124.578 14.4566C124.373 14.5419 124.186 14.704 124.015 14.9429C123.845 15.1647 123.759 15.3695 123.759 15.5572C123.759 15.7278 123.836 15.8728 123.99 15.9923C124.16 16.1117 124.416 16.197 124.757 16.2482C125.099 16.2994 125.389 16.3335 125.628 16.3506C125.866 16.3677 126.208 16.3847 126.651 16.4018C126.839 16.4018 126.967 16.4018 127.035 16.4018C128.742 16.453 129.987 16.6918 130.772 17.1184C131.574 17.5279 131.975 18.1507 131.975 18.9868C131.992 20.2665 131.378 21.3756 130.132 22.314C128.887 23.2525 127.445 23.7217 125.807 23.7217C124.561 23.7388 123.469 23.4999 122.531 23.0051C121.609 22.5103 121.149 21.8107 121.149 20.9064C121.149 20.4115 121.387 19.9338 121.865 19.4731C122.36 19.0124 122.889 18.6882 123.452 18.5005C123.008 18.364 122.599 18.1081 122.224 17.7327C121.848 17.3402 121.66 16.8881 121.66 16.3762C121.66 15.6425 122.292 14.8832 123.554 14.0983C123.06 13.8765 122.599 13.4414 122.172 12.793C121.746 12.1275 121.533 11.428 121.533 10.6943C121.533 9.48281 121.976 8.5273 122.863 7.82772C123.751 7.12815 124.834 6.77836 126.114 6.77836Z" fill="#C95003"/>
<path d="M140.755 6.72717C142.939 6.72717 144.031 8.40786 144.031 11.7692V14.4054C144.031 15.4463 144.099 16.2141 144.236 16.7089C144.253 16.8283 144.474 16.9563 144.901 17.0928C145.345 17.2123 145.643 17.272 145.797 17.272C145.848 17.272 145.874 17.4 145.874 17.6559C145.891 17.8948 145.891 18.0569 145.874 18.1422C145.754 18.1251 145.293 18.091 144.492 18.0398C143.707 17.9886 143.126 17.963 142.751 17.963C142.325 17.963 141.744 17.9886 141.011 18.0398C140.294 18.091 139.85 18.1251 139.68 18.1422C139.629 18.0739 139.603 17.9118 139.603 17.6559C139.603 17.4 139.629 17.272 139.68 17.272C139.885 17.272 140.175 17.2123 140.55 17.0928C140.942 16.9563 141.164 16.8283 141.215 16.7089C141.318 16.197 141.369 15.5742 141.369 14.8405V12.3323C141.369 10.9161 141.173 9.94351 140.78 9.41456C140.405 8.86855 139.799 8.59555 138.963 8.59555C138.451 8.59555 137.982 8.74058 137.555 9.03065C137.129 9.32072 136.916 9.64491 136.916 10.0032V14.4054C136.916 15.4463 136.984 16.2141 137.12 16.7089C137.155 16.8283 137.376 16.9563 137.786 17.0928C138.212 17.2123 138.502 17.272 138.656 17.272C138.707 17.272 138.733 17.4 138.733 17.6559C138.75 17.8948 138.741 18.0569 138.707 18.1422C138.571 18.1251 138.119 18.091 137.351 18.0398C136.6 17.9886 136.028 17.963 135.636 17.963C135.226 17.963 134.629 17.9886 133.844 18.0398C133.077 18.091 132.624 18.1251 132.488 18.1422C132.42 18.0739 132.385 17.9118 132.385 17.6559C132.385 17.4 132.42 17.272 132.488 17.272C132.693 17.272 133 17.2123 133.409 17.0928C133.836 16.9563 134.066 16.8283 134.1 16.7089C134.22 16.197 134.279 15.5828 134.279 14.8661V4.21894C134.279 3.53643 134.237 2.95629 134.151 2.47854C134.066 2.20553 133.623 2.06903 132.821 2.06903H132.59C132.488 2.06903 132.437 1.93253 132.437 1.65952C132.437 1.38652 132.488 1.25001 132.59 1.25001C133.119 1.19883 133.623 1.13058 134.1 1.04526C134.578 0.959947 134.97 0.874633 135.278 0.789319C135.602 0.704005 135.875 0.618691 136.097 0.533377C136.336 0.448063 136.515 0.388343 136.634 0.354218C136.771 0.303029 136.839 0.277435 136.839 0.277435H136.89C136.958 0.277435 137.027 0.328624 137.095 0.431C137.163 0.516314 137.206 0.601628 137.223 0.686942C137.018 1.35239 136.916 2.15434 136.916 3.0928V8.26282C136.916 8.3652 136.95 8.41639 137.018 8.41639C137.035 8.41639 137.069 8.39079 137.12 8.33961C137.479 7.9301 137.999 7.56325 138.682 7.23906C139.381 6.8978 140.072 6.72717 140.755 6.72717Z" fill="#C95003"/>
<path d="M147.615 8.51877H146.054C145.934 8.51877 145.875 8.29695 145.875 7.85332C145.875 7.73388 145.883 7.65709 145.9 7.62297C146.583 7.31584 147.24 6.86368 147.871 6.26648C148.093 6.04466 148.332 5.79725 148.588 5.52425C148.861 5.23418 149.082 4.97824 149.253 4.75642C149.441 4.5346 149.535 4.4237 149.535 4.4237C149.705 4.4237 149.867 4.44929 150.021 4.50048C150.174 4.5346 150.251 4.57726 150.251 4.62845V7.13668C150.695 7.13668 151.309 7.14521 152.094 7.16227C152.896 7.16227 153.323 7.16227 153.374 7.16227C153.51 7.16227 153.578 7.23906 153.578 7.39262C153.578 7.80213 153.493 8.17751 153.323 8.51877H150.251V14.687C150.251 15.3695 150.396 15.8899 150.686 16.2482C150.976 16.6065 151.377 16.7857 151.889 16.7857C152.06 16.7857 152.239 16.7686 152.427 16.7345C152.614 16.6833 152.768 16.6321 152.887 16.5809C153.007 16.5297 153.118 16.4786 153.22 16.4274C153.323 16.3762 153.382 16.3506 153.399 16.3506C153.468 16.3335 153.544 16.4103 153.63 16.5809C153.715 16.7516 153.749 16.8625 153.732 16.9137C153.63 17.1525 153.263 17.4341 152.632 17.7583C152.017 18.0654 151.412 18.219 150.814 18.219C149.927 18.219 149.168 17.9374 148.536 17.3744C147.922 16.7942 147.615 15.907 147.615 14.7126V8.51877Z" fill="#C95003"/>
<path d="M158.212 6.70158C159.168 6.70158 160.157 6.84661 161.181 7.13668C161.352 7.90451 161.445 8.86002 161.463 10.0032C161.463 10.1397 161.352 10.208 161.13 10.208C160.754 10.208 160.55 10.1397 160.516 10.0032C160.396 9.40603 160.14 8.90268 159.748 8.49317C159.372 8.0666 158.86 7.85332 158.212 7.85332C157.717 7.85332 157.325 7.96423 157.035 8.18604C156.762 8.40786 156.625 8.72352 156.625 9.13303C156.625 9.37191 156.668 9.59372 156.753 9.79848C156.856 9.98617 157.009 10.1653 157.214 10.336C157.436 10.5066 157.623 10.6431 157.777 10.7455C157.948 10.8478 158.195 10.9843 158.519 11.155C158.639 11.2232 158.724 11.2659 158.775 11.2829C158.809 11.3 158.937 11.3683 159.159 11.4877C159.381 11.6071 159.517 11.6839 159.569 11.718C159.637 11.7522 159.773 11.8375 159.978 11.974C160.2 12.0934 160.353 12.1873 160.439 12.2555C160.524 12.3238 160.652 12.4261 160.823 12.5626C161.01 12.6992 161.138 12.8186 161.207 12.921C161.292 13.0233 161.394 13.1598 161.514 13.3305C161.65 13.484 161.744 13.6376 161.795 13.7912C161.846 13.9277 161.889 14.0898 161.923 14.2775C161.974 14.4481 162 14.6272 162 14.8149C162 15.8899 161.582 16.743 160.746 17.3744C159.927 17.9886 158.929 18.2957 157.751 18.2957C156.693 18.2957 155.593 18.0569 154.45 17.5791C154.364 17.289 154.279 16.8198 154.194 16.1714C154.108 15.506 154.066 15.0112 154.066 14.687C154.168 14.6017 154.288 14.559 154.424 14.559C154.817 14.559 155.021 14.6272 155.038 14.7638C155.175 15.4804 155.508 16.0605 156.037 16.5042C156.583 16.9307 157.171 17.144 157.803 17.144C158.28 17.144 158.673 17.0246 158.98 16.7857C159.287 16.5468 159.441 16.197 159.441 15.7363C159.441 15.5657 159.415 15.4121 159.364 15.2756C159.33 15.1221 159.253 14.977 159.133 14.8405C159.014 14.687 158.912 14.5675 158.826 14.4822C158.758 14.3798 158.605 14.2604 158.366 14.1239C158.144 13.9874 157.973 13.8935 157.854 13.8424C157.751 13.7741 157.538 13.6632 157.214 13.5096C156.907 13.339 156.693 13.2196 156.574 13.1513C155.789 12.7418 155.183 12.2896 154.757 11.7948C154.33 11.2829 154.117 10.6687 154.117 9.95204C154.117 8.91121 154.526 8.10926 155.346 7.54619C156.165 6.98311 157.12 6.70158 158.212 6.70158Z" fill="#C95003"/>
</svg>
